<?xml version="1.0" encoding="utf-8"?>
<!-- Generator: Adobe Illustrator 22.1.0, SVG Export Plug-In . SVG Version: 6.00 Build 0)  -->
<svg version="1.1" id="Layer_1" xmlns="http://www.w3.org/2000/svg" xmlns:xlink="http://www.w3.org/1999/xlink" x="0px" y="0px"
	 viewBox="0 0 164 70" style="enable-background:new 0 0 164 70;" xml:space="preserve">
<style type="text/css">
	.st0{filter:url(#Adobe_OpacityMaskFilter);}
	.st1{fill:#FFFFFF;}
	.st2{mask:url(#mask-2_1_);}
</style>
<title>55550F60-FC31-48F6-AAFF-8AC7328040BE-51760-00000A59C847A195@3x</title>
<desc>Created with sketchtool.</desc>
<g id="Desktop">
	<g id="Legendary-Concerts" transform="translate(-639.000000, -24.000000)">
		<g id="Header-Nav" transform="translate(1.000000, -1.000000)">
			<g id="Logo">
				<g transform="translate(638.000000, 25.000000)">
					<polygon id="Fill-1" points="146.8,15.3 136.7,25.7 143.7,32.8 160.8,15.3 					"/>
					<g id="Group-23">
						<path id="Fill-2" d="M143.6,32.8c0.9-0.5,2-0.7,3.1-0.7c4,0,7.2,3.2,7.2,7.1c0,1.1-0.3,2.2-0.7,3.1l7.1,7.1
							c2.2-2.8,3.5-6.4,3.5-10.2c0-9.3-7.6-16.9-17-16.9c-3.9,0-7.4,1.3-10.3,3.4L143.6,32.8z"/>
						<path id="Fill-4" d="M150,45.6c-1,0.5-2.1,0.8-3.3,0.8c-4,0-7.2-3.2-7.2-7.1c0-1.2,0.3-2.3,0.8-3.2l-7.1-7.1
							c-2.2,2.9-3.5,6.4-3.5,10.3c0,9.3,7.6,16.9,17,16.9c3.9,0,7.5-1.3,10.4-3.5L150,45.6z"/>
						<polygon id="Fill-6" points="84.5,33.9 84.5,54.8 94.2,54.8 94.2,43.6 						"/>
						<polygon id="Fill-8" points="104.1,34.6 84.5,15.5 84.5,27.5 104.4,47.2 114,37.6 114,54.8 123.7,54.8 123.7,15.8 						"/>
						<polygon id="Fill-10" points="44.9,37 44.9,54.8 62.8,54.8 						"/>
						<path id="Fill-12" d="M65.1,30.5h-7.9l-2.6-2.6v-3.4h10.5c1.6,0,3,1.3,3,3C68.1,29.2,66.8,30.5,65.1,30.5 M78.8,27.3
							c0-0.9-0.1-1.9-0.3-2.8c-1.3-5.1-5.9-8.7-11.2-8.7H44.9v14.7l10,9.9h10.2c1.6,0,3,1.3,3,3c0,1.6-1.3,3-3,3h-4.3l8.3,8.2
							c4.5-0.7,8.2-4,9.4-8.5c0.2-0.9,0.3-1.8,0.3-2.8c0-3-1.2-5.9-3.3-8C77.6,33.2,78.8,30.3,78.8,27.3"/>
						<path id="Fill-14" d="M38.7,31.1c-1.1-4.8-3.9-9-8-11.8c-3.3-2.2-7.1-3.4-11.1-3.4c-5.7,0-11.1,2.4-14.8,6.7l6.9,6.9
							c0.3-0.4,0.6-0.7,0.9-1c1.9-1.9,4.3-2.9,7-2.9c2.6,0,5.1,1,7,2.9c0.9,0.9,1.6,2,2.1,3.2l0.2,0.5h10L38.7,31.1z"/>
						<path id="Fill-16" d="M19.3,38.5l5.5,5.3c-1.6,1-3.7,1.3-5.2,1.3c-2.6,0-5.1-1-7-2.9c-1.9-1.9-2.9-4.3-2.9-6.9
							c0-0.4,0-0.9,0.1-1.3l-7.7-7.6l-0.3,0.6C0.6,29.5,0,32.4,0,35.3c0,5.2,2,10.1,5.7,13.8s8.6,5.7,13.9,5.7
							c3.5,0,6.9-0.9,9.9-2.7v2.6h9.7V38.5H19.3z"/>
						<polygon id="Fill-18" points="163.7,69.7 0,69.7 0,60 74.9,60 82.5,67.6 161.7,67.6 161.7,60 163.7,60 						"/>
						<g id="Group-22">
							<g id="Clip-21">
							</g>
							<defs>
								<filter id="Adobe_OpacityMaskFilter" filterUnits="userSpaceOnUse" x="0" y="0.2" width="163.7" height="9.7">
									<feColorMatrix  type="matrix" values="1 0 0 0 0  0 1 0 0 0  0 0 1 0 0  0 0 0 1 0"/>
								</filter>
							</defs>
							<mask maskUnits="userSpaceOnUse" x="0" y="0.2" width="163.7" height="9.7" id="mask-2_1_">
								<g class="st0">
									<polygon id="path-1_1_" class="st1" points="0,0.2 163.7,0.2 163.7,9.8 0,9.8 									"/>
								</g>
							</mask>
							<polygon id="Fill-20" class="st2" points="0,0.2 163.7,0.2 163.7,9.8 78.7,9.8 71,2.3 2.1,2.3 2.1,9.8 0,9.8 							"/>
						</g>
					</g>
				</g>
			</g>
		</g>
	</g>
</g>
</svg>
